<svg width="18" height="20" viewBox="0 0 18 20" fill="none" xmlns="http://www.w3.org/2000/svg">
<path d="M8.21921 19.6438C8.60021 20.1188 9.40021 20.1188 9.78121 19.6438L17.7812 9.64375C17.8986 9.49654 17.972 9.31922 17.9932 9.13214C18.0143 8.94506 17.9823 8.75582 17.9007 8.58613C17.8192 8.41645 17.6914 8.2732 17.5321 8.17284C17.3728 8.07248 17.1885 8.01907 17.0002 8.01875H13.0002V1.01875C13.0002 0.753533 12.8949 0.499178 12.7073 0.311642C12.5198 0.124105 12.2654 0.0187492 12.0002 0.0187492H6.00021C5.735 0.0187492 5.48064 0.124105 5.29311 0.311642C5.10557 0.499178 5.00021 0.753533 5.00021 1.01875L5.00021 8.01875L1.00021 8.01875C0.811947 8.01907 0.627587 8.07248 0.468302 8.17284C0.309016 8.2732 0.181262 8.41645 0.0997086 8.58613C0.0181548 8.75582 -0.0138927 8.94506 0.00724602 9.13214C0.0283847 9.31922 0.101852 9.49654 0.219213 9.64375L8.21921 19.6438ZM6.00021 10.0188H7.00021L7.00021 2.01875H11.0002V10.0188H14.9192L9.00021 17.4178L3.08121 10.0188H6.00021Z" fill="black"/>
</svg>
