<svg width="19" height="19" viewBox="0 0 19 19" fill="none" xmlns="http://www.w3.org/2000/svg">
<path d="M18.1791 5.01166L13.9894 0.82197C13.8675 0.700079 13.7228 0.603389 13.5636 0.537421C13.4043 0.471453 13.2336 0.4375 13.0613 0.4375C12.8889 0.4375 12.7182 0.471453 12.5589 0.537421C12.3997 0.603389 12.255 0.700079 12.1331 0.82197L0.571877 12.3823C0.449753 12.504 0.352918 12.6486 0.286949 12.8079C0.22098 12.9672 0.187182 13.138 0.187502 13.3104V17.5001C0.187502 17.8482 0.325783 18.182 0.571925 18.4282C0.818066 18.6743 1.15191 18.8126 1.5 18.8126H5.68969C5.8621 18.8129 6.03287 18.7791 6.19216 18.7131C6.35145 18.6472 6.49611 18.5503 6.61781 18.4282L14.6953 10.3507L15.1275 12.0776L11.6025 15.6026C11.5496 15.6547 11.5075 15.7168 11.4788 15.7852C11.45 15.8537 11.435 15.9271 11.4347 16.0014C11.4345 16.0756 11.4489 16.1492 11.4773 16.2178C11.5056 16.2865 11.5472 16.3488 11.5997 16.4013C11.6523 16.4538 11.7147 16.4953 11.7833 16.5236C11.852 16.5518 11.9256 16.5662 11.9999 16.5658C12.0741 16.5655 12.1476 16.5504 12.216 16.5216C12.2844 16.4927 12.3464 16.4506 12.3984 16.3976L16.1484 12.6476C16.2172 12.5789 16.267 12.4936 16.2929 12.3999C16.3189 12.3063 16.3201 12.2075 16.2966 12.1132L15.6234 9.42259L18.1791 6.86791C18.301 6.74603 18.3976 6.60133 18.4636 6.44208C18.5296 6.28284 18.5635 6.11215 18.5635 5.93978C18.5635 5.76741 18.5296 5.59673 18.4636 5.43748C18.3976 5.27823 18.301 5.13354 18.1791 5.01166ZM1.3125 17.5001V14.3585L4.6425 17.6876H1.5C1.45027 17.6876 1.40258 17.6678 1.36742 17.6327C1.33226 17.5975 1.3125 17.5498 1.3125 17.5001ZM6 17.4542L1.545 13.0001L9.75 4.79603L14.205 9.25009L6 17.4542ZM17.3831 6.07197L15 8.45509L10.5459 4.00009L12.9281 1.61791C12.9455 1.60047 12.9662 1.58664 12.989 1.57721C13.0117 1.56777 13.0361 1.56292 13.0608 1.56292C13.0854 1.56292 13.1098 1.56777 13.1326 1.57721C13.1553 1.58664 13.176 1.60047 13.1934 1.61791L17.3831 5.80666C17.4006 5.82407 17.4144 5.84475 17.4238 5.86751C17.4333 5.89027 17.4381 5.91467 17.4381 5.93931C17.4381 5.96395 17.4333 5.98835 17.4238 6.01111C17.4144 6.03388 17.4006 6.05456 17.3831 6.07197Z" fill="black"/>
</svg>
