<svg width="24" height="24" viewBox="0 0 24 24" fill="none" xmlns="http://www.w3.org/2000/svg">
<path d="M10.1977 8.9965C10.3581 9.00158 10.5178 8.97437 10.6675 8.9165C10.8172 8.85864 10.9537 8.77128 11.0689 8.65963C11.1842 8.54797 11.2758 8.4143 11.3384 8.26654C11.401 8.11879 11.4332 7.95996 11.4332 7.7995C11.4332 7.63904 11.401 7.48021 11.3384 7.33245C11.2758 7.1847 11.1842 7.05102 11.0689 6.93937C10.9537 6.82772 10.8172 6.74036 10.6675 6.68249C10.5178 6.62462 10.3581 6.59742 10.1977 6.6025C9.88679 6.61234 9.59192 6.74277 9.37547 6.96618C9.15903 7.18958 9.038 7.48844 9.038 7.7995C9.038 8.11056 9.15903 8.40941 9.37547 8.63282C9.59192 8.85623 9.88679 8.98665 10.1977 8.9965ZM6.0001 7.2001C6.0001 6.24532 6.37938 5.32964 7.05451 4.65451C7.72964 3.97938 8.64532 3.6001 9.6001 3.6001H16.8001C17.7549 3.6001 18.6706 3.97938 19.3457 4.65451C20.0208 5.32964 20.4001 6.24532 20.4001 7.2001V14.4001C20.4001 15.3549 20.0208 16.2706 19.3457 16.9457C18.6706 17.6208 17.7549 18.0001 16.8001 18.0001H9.6001C8.64532 18.0001 7.72964 17.6208 7.05451 16.9457C6.37938 16.2706 6.0001 15.3549 6.0001 14.4001V7.2001ZM9.6001 4.8001C8.96358 4.8001 8.35313 5.05295 7.90304 5.50304C7.45295 5.95313 7.2001 6.56358 7.2001 7.2001V14.4001C7.2001 14.8441 7.3213 15.2617 7.5325 15.6193L11.7481 11.4025C12.1329 11.0178 12.6548 10.8017 13.1989 10.8017C13.743 10.8017 14.2649 11.0178 14.6497 11.4025L18.8665 15.6193C19.0801 15.2617 19.2001 14.8453 19.2001 14.4001V7.2001C19.2001 6.56358 18.9472 5.95313 18.4972 5.50304C18.0471 5.05295 17.4366 4.8001 16.8001 4.8001H9.6001ZM18.0193 16.4677L13.8025 12.2509C13.6427 12.0912 13.426 12.0014 13.2001 12.0014C12.9742 12.0014 12.7575 12.0912 12.5977 12.2509L8.3809 16.4677C8.7385 16.6801 9.1549 16.8001 9.6001 16.8001H16.8001C17.2441 16.8001 17.6617 16.6789 18.0193 16.4677ZM14.4001 20.4001C14.9067 20.4008 15.4077 20.2943 15.8702 20.0875C16.3327 19.8806 16.7461 19.5782 17.0833 19.2001H9.0001C7.88619 19.2001 6.8179 18.7576 6.03025 17.9699C5.2426 17.1823 4.8001 16.114 4.8001 15.0001V6.9169C4.0633 7.5769 3.6001 8.5345 3.6001 9.6001V15.0001C3.6001 16.4323 4.16902 17.8058 5.18172 18.8185C6.19442 19.8312 7.56793 20.4001 9.0001 20.4001H14.4001Z" fill="black"/>
</svg>
