<svg width="18" height="18" viewBox="0 0 18 18" fill="none" xmlns="http://www.w3.org/2000/svg">
<path d="M1 1.00098H17V15.001C17 15.5314 16.7893 16.0401 16.4142 16.4152C16.0391 16.7903 15.5304 17.001 15 17.001H3C2.46957 17.001 1.96086 16.7903 1.58579 16.4152C1.21071 16.0401 1 15.5314 1 15.001V1.00098Z" stroke="black" stroke-width="2" stroke-linecap="round" stroke-linejoin="round"/>
<path d="M9 13H9.01V13.01H9V13Z" stroke="black" stroke-width="3" stroke-linejoin="round"/>
<path d="M7.58594 4.58601C7.97594 4.19601 8.48594 4.00101 8.99594 4.00001C9.25931 3.99905 9.52025 4.05035 9.76365 4.15093C10.0071 4.25152 10.2281 4.3994 10.4139 4.58601C10.8039 4.97601 10.9999 5.48801 10.9999 6.00001C11.0004 6.26272 10.9489 6.52292 10.8483 6.76561C10.7477 7.0083 10.6001 7.22867 10.4139 7.41401C10.228 7.60053 10.007 7.74835 9.76359 7.84894C9.5202 7.94952 9.25929 8.00087 8.99594 8.00001L8.99994 9.00001" stroke="black" stroke-width="2" stroke-linecap="round" stroke-linejoin="round"/>
</svg>
