<svg width="18" height="20" viewBox="0 0 18 20" fill="none" xmlns="http://www.w3.org/2000/svg">
<path d="M9.78079 0.375049C9.39979 -0.0999512 8.59979 -0.0999512 8.21879 0.375049L0.218787 10.375C0.101425 10.5223 0.0279573 10.6996 0.00681859 10.8867C-0.0143201 11.0737 0.0177274 11.263 0.0992811 11.4327C0.180835 11.6024 0.308589 11.7456 0.467874 11.846C0.62716 11.9463 0.81152 11.9997 0.999786 12H4.99979V19C4.99979 19.2653 5.10514 19.5196 5.29268 19.7072C5.48022 19.8947 5.73457 20 5.99979 20H11.9998C12.265 20 12.5194 19.8947 12.7069 19.7072C12.8944 19.5196 12.9998 19.2653 12.9998 19V12H16.9998C17.1881 11.9997 17.3724 11.9463 17.5317 11.846C17.691 11.7456 17.8187 11.6024 17.9003 11.4327C17.9818 11.263 18.0139 11.0737 17.9928 10.8867C17.9716 10.6996 17.8981 10.5223 17.7808 10.375L9.78079 0.375049ZM11.9998 10H10.9998V18H6.99979V10H3.08079L8.99979 2.60105L14.9188 10H11.9998Z" fill="black"/>
</svg>
